<svg version="1" xmlns="http://www.w3.org/2000/svg" width="2730.667" height="2730.667" viewBox="0 0 2048.000000 2048.000000"><path d="M594.2 247.4c-235.6 136.1-428.4 247.7-428.5 248-.1.3 38.5 22.9 85.8 50.2 64.3 37.1 86.3 49.4 87.5 48.7.8-.5 194-112 429.3-247.8C1003.5 210.6 1196 99.3 1196 99c-.1-.8-169.9-98.5-171.7-98.7-1-.1-194.5 111.1-430.1 247.1zM844.5 499.5c-117.7 67.9-214 124-214 124.5 0 .7 167.7 98.4 170.5 99.3 1.2.4 430-247.7 429.3-248.4-1-.9-168.9-97.8-170.6-98.5-.7-.2-97.5 55.2-215.2 123.1zM1280.8 643.8C1044.9 780 852 891.7 852 892c.1.6 167.1 97.1 170.4 98.4 1.9.7 67.3-36.7 430.7-246.4 235.6-136 428.8-247.6 429.2-248 .7-.6-170.5-100.1-172-99.9-.5 0-193.7 111.5-429.5 247.7zM132.2 660.5l.3 99.7 321.7 185.7 321.7 185.6.1 396.5v396.5l106.9 61.8c58.8 33.9 107.2 61.7 107.5 61.7.3 0 .6-223.1.6-495.8v-495.8L562.4 809c-235.7-136.1-429-247.7-429.5-247.8-.6-.2-.8 38.1-.7 99.3zM1828.8 610.7l-85.8 49.6v495.9c0 272.7.2 495.8.5 495.8s39.2-22.3 86.5-49.6l86-49.7v-495.8c0-272.8-.3-495.9-.7-495.8-.5 0-39.4 22.4-86.5 49.6zM1142.2 1007.2l-85.2 49.2v495.9c0 328.1.3 495.8 1 495.5.5-.1 39.2-22.3 86-49.3l85-49v-495.8c0-272.6-.3-495.7-.8-495.7-.4 0-39.1 22.1-86 49.2zM1485.8 1241.6l-68.8 39.7v198.5c0 174.7.2 198.3 1.5 197.8 2.3-.9 133.9-76.8 135.3-78 .9-.9 1.2-41.6 1-199.4l-.3-198.3-68.7 39.7z"/></svg>