<svg id="Layer_1" data-name="Layer 1" 
  xmlns="http://www.w3.org/2000/svg" viewBox="0 0 1024 1024">
  <defs>
    <style>.cls-1{fill:#892890;}.cls-2{fill:#001522;}</style>
  </defs>
  <polygon class="cls-2" points="855.28 198.19 426.18 445.94 512 495.48 941.1 247.74 855.28 198.19"/>
  <polygon class="cls-1" points="529.43 188.13 314.88 312 400.7 361.55 615.25 237.68 529.43 188.13"/>
  <polygon class="cls-2" points="512 0 82.9 247.74 168.72 297.29 597.82 49.55 512 0"/>
  <polygon class="cls-2" points="528.52 1024 528.52 528.52 614.34 478.97 614.34 974.45 528.52 1024"/>
  <polygon class="cls-1" points="708.74 838.98 708.74 640.79 777.39 601.15 777.39 799.34 708.74 838.98"/>
  <polygon class="cls-2" points="871.8 825.81 871.8 330.32 957.62 280.77 957.62 776.26 871.8 825.81"/>
  <polygon class="cls-2" points="388.21 466.58 66.38 280.77 66.38 379.87 388.21 565.68 388.21 962.06 495.48 1024 495.48 627.61 495.48 528.52 388.21 466.58"/>
</svg>
