<svg version="1" xmlns="http://www.w3.org/2000/svg" width="933.333" height="933.333" viewBox="0 0 700.000000 700.000000"><path d="M333.5 9.4C304.9 26 265.7 48.6 255 54.8c-1.9 1-10.2 5.9-18.5 10.7-8.2 4.8-16.8 9.8-19 11-2.2 1.2-14.1 8-26.5 15.2-12.4 7.2-24.6 14.2-27 15.6-2.5 1.4-9 5.1-14.5 8.4-5.5 3.2-10.7 6.2-11.5 6.6-.8.4-3 1.7-4.9 2.8-1.9 1.1-13.6 7.9-26 15.1-45 25.9-50.1 29-49.5 29.9.3.5.9.9 1.3.9.5 0 8.6 4.6 18.2 10.1 9.6 5.6 19.9 11.6 22.9 13.2 3 1.7 7.1 4 9 5.2 6.3 3.9 6 3.9 24.2-6.7 9.5-5.5 19-11 21.2-12.2 2.1-1.1 4.6-2.6 5.5-3.1.9-.6 5.7-3.3 10.6-6.1 5-2.9 14.6-8.5 21.5-12.4 6.9-4 20.8-12.1 31-18 10.2-5.8 29.3-16.9 42.5-24.5 32.8-19 47.1-27.2 97-55.9 23.7-13.7 43.6-25.4 44.4-26.1 1.1-1.1.7-1.6-2.6-3.3-2.1-1.1-11.7-6.6-21.3-12.2-9.6-5.7-20-11.6-23-13.2-3-1.7-6.4-3.7-7.5-4.4-1.1-.8-2.2-1.4-2.5-1.3-.3 0-7.7 4.2-16.5 9.3zM330 146.9c-16.8 9.7-47.8 27.7-69 39.9-21.2 12.1-39 22.6-39.7 23.2-.7.5-1.6 1-2.1 1s-1.5.6-2.1 1.4c-.9 1.1.6 2.4 8.1 6.6 13.4 7.7 13.7 7.8 32 18.4l16.7 9.7 46.3-26.6c25.5-14.7 50.4-29.1 55.3-32 10-5.9 33.4-19.3 39.8-23 2.3-1.2 4.1-2.7 4.1-3.1-.2-1-56.4-33.4-57.8-33.3-.6 0-14.8 8-31.6 17.8zM577.5 139.5c-3.8 2.3-9 5.3-11.5 6.7-2.5 1.4-13 7.5-23.5 13.5-10.4 6.1-33.6 19.4-51.5 29.7s-35 20.2-38 22c-3 1.9-7.5 4.5-10 5.8-5.5 3.1-33.9 19.4-36 20.7-2.3 1.4-66.2 38.4-102.7 59.4-6.7 3.8-12 7.3-11.8 7.8.4.6 10.5 6.6 26.8 15.8 4.8 2.7 8.1 4.6 19.9 11.5 5.3 3.1 10.2 5.6 10.9 5.6.6 0 11.6-6 24.3-13.4 29.5-17.1 112.4-65 117.3-67.7 2.1-1.2 7.9-4.5 12.8-7.4 5-2.9 10.6-6.2 12.5-7.3 5.8-3.3 41.2-23.7 62-35.7 10.7-6.2 29.4-17 41.5-24 12.1-7 22.1-12.8 22.3-13 .3-.3-3.7-2.7-11.3-7-2.2-1.3-10.7-6.2-19-11-8.2-4.8-17.5-10.1-20.5-11.8-3-1.6-5.9-3.3-6.5-3.7-.5-.4-4.1 1.2-8 3.5zM45.9 192.3c-.1.1-.3 15.3-.4 33.8l-.1 33.6 17 9.8c9.4 5.4 26.5 15.4 38.1 22 11.6 6.7 23 13.3 25.5 14.7 2.5 1.4 9.6 5.5 15.9 9.2 6.2 3.6 11.6 6.6 11.9 6.6.3 0 1.3.6 2.1 1.4.9.7 4.1 2.7 7.1 4.3 3 1.6 20 11.4 37.8 21.7 17.8 10.3 34.3 19.8 36.7 21.2 11.1 6.2 27 15.7 27.5 16.4.3.5.5 61.5.5 135.7l-.1 134.8 8 4.8c4.3 2.6 8.1 4.7 8.2 4.7.2 0 3.3 1.8 6.9 4 3.6 2.2 6.8 4 7 4 .3 0 2.2 1.1 4.3 2.4 2.8 1.7 34.5 20.2 38.3 22.2.4.2.7-75.8.7-169V361.3l-16.2-9.3c-17.9-10.4-45.5-26.4-50.1-29-1.6-.9-14.5-8.4-28.5-16.5s-27.5-15.9-30-17.3c-2.5-1.4-9.7-5.5-16-9.2-6.3-3.7-13.3-7.8-15.5-9-5.5-3.1-39.7-22.8-65.5-37.8-11.8-6.9-23.3-13.5-25.6-14.8-2.2-1.2-13.4-7.7-24.7-14.3-11.4-6.5-20.8-11.9-20.8-11.8zM625.4 208.7l-28.9 16.8-.3 169.2c-.1 93.1 0 169.3.2 169.3s9.7-5.4 21.1-12c11.4-6.6 20.9-12 21-12 .1 0 3.8-2.1 8.2-4.8l7.9-4.7V361.2c0-93 0-169.2-.1-169.2s-13.1 7.5-29.1 16.7zM406.5 335c-6.6 3.9-13.1 7.7-14.5 8.5-1.4.8-8.9 5.1-16.7 9.6l-14.1 8.2v338.6l3.6-2.1c2.1-1.1 12.6-7.2 23.5-13.5 11-6.3 21.4-12.3 23.4-13.4 1.9-1.1 4.5-2.7 5.9-3.5l2.4-1.6V496.9c0-92.9-.3-168.9-.7-168.9-.5 0-6.2 3.2-12.8 7zM508.5 424.1c-12.1 7.1-22.4 13-23 13.2-1 .4-1.5 135.7-.5 135.7.3 0 10.8-6 23.5-13.4l22.9-13.3.1-66.7c0-36.8-.2-67.1-.5-67.5-.3-.4-10.4 5-22.5 12z"/></svg>